<svg id="Capa_1" data-name="Capa 1" xmlns="http://www.w3.org/2000/svg" viewBox="0 0 618.85 300"><defs><style>.cls-1{fill:#fff;}</style></defs><rect class="cls-1" x="279.21" y="13.22" width="7.11" height="7.26"/><polygon class="cls-1" points="86.39 14.32 93.65 14.32 93.65 7.22 100.91 7.22 100.91 0.11 93.64 0.11 93.64 7.21 86.38 7.21 86.38 14.32 79.12 14.32 79.13 21.43 86.39 21.43 86.39 14.32"/><polygon class="cls-1" points="64.6 35.65 71.86 35.64 71.86 28.55 79.13 28.55 79.13 21.43 71.86 21.43 71.86 28.53 64.59 28.54 64.6 35.64 57.33 35.64 57.33 42.74 64.61 42.74 64.6 35.65"/><rect class="cls-1" x="100.95" y="78.26" width="7.27" height="7.11"/><rect class="cls-1" x="108.2" y="71.15" width="7.27" height="7.1"/><polygon class="cls-1" points="137.26 49.83 130 49.83 130 56.93 122.73 56.93 122.73 64.04 130 64.04 130 56.94 137.26 56.94 137.26 49.84 144.52 49.84 144.52 42.73 137.25 42.73 137.26 49.83"/><rect class="cls-1" x="93.68" y="85.37" width="7.27" height="7.1"/><rect class="cls-1" x="79.14" y="56.94" width="7.27" height="7.11"/><polygon class="cls-1" points="71.87 71.16 64.61 71.16 64.61 78.27 71.87 78.27 71.87 71.17 79.14 71.17 79.14 64.06 71.87 64.06 71.87 71.16"/><rect class="cls-1" x="57.34" y="78.27" width="7.27" height="7.11"/><polygon class="cls-1" points="100.92 49.84 100.92 42.73 93.65 42.73 93.65 49.84 86.39 49.84 86.39 56.94 93.66 56.94 93.66 49.84 100.92 49.84"/><polygon class="cls-1" points="108.22 120.89 100.96 120.89 100.96 128 108.22 127.99 108.22 120.89 115.48 120.88 115.48 113.78 108.22 113.78 108.22 120.89"/><polygon class="cls-1" points="137.27 92.45 130.01 92.46 130.01 99.56 122.74 99.57 122.75 106.66 115.48 106.67 115.48 113.77 122.75 113.77 122.75 106.67 130.01 106.67 130.01 99.57 137.27 99.56 137.27 92.46 144.53 92.46 144.53 85.36 137.27 85.36 137.27 92.45"/><rect class="cls-1" x="93.69" y="127.98" width="7.27" height="7.12"/><polygon class="cls-1" points="510.52 14.21 517.78 14.21 517.78 7.11 525.05 7.11 525.05 0 517.77 0 517.78 7.11 510.52 7.11 510.52 14.21 503.26 14.21 503.26 21.32 510.53 21.32 510.52 14.21"/><polygon class="cls-1" points="488.74 35.54 496 35.53 496 28.44 503.26 28.44 503.26 21.32 495.99 21.32 496 28.43 488.73 28.43 488.73 35.53 481.46 35.53 481.47 42.63 488.74 42.63 488.74 35.54"/><rect class="cls-1" x="525.08" y="78.16" width="7.27" height="7.11"/><rect class="cls-1" x="532.34" y="71.04" width="7.27" height="7.1"/><polygon class="cls-1" points="561.39 42.62 561.39 49.72 554.13 49.73 554.13 56.82 546.87 56.82 546.87 63.93 554.14 63.93 554.13 56.83 561.39 56.83 561.39 49.73 568.66 49.73 568.66 42.62 561.39 42.62"/><rect class="cls-1" x="517.82" y="85.26" width="7.27" height="7.1"/><rect class="cls-1" x="503.27" y="56.83" width="7.27" height="7.11"/><polygon class="cls-1" points="496.01 71.05 488.74 71.06 488.74 78.16 496.01 78.16 496.01 71.06 503.27 71.06 503.27 63.95 496 63.95 496.01 71.05"/><rect class="cls-1" x="481.48" y="78.16" width="7.27" height="7.11"/><polygon class="cls-1" points="525.06 49.73 525.06 42.62 517.79 42.63 517.79 49.73 510.53 49.73 510.53 56.83 517.8 56.83 517.79 49.73 525.06 49.73"/><polygon class="cls-1" points="532.35 120.78 525.09 120.78 525.09 127.89 532.36 127.89 532.36 120.78 539.62 120.78 539.62 113.67 532.35 113.67 532.35 120.78"/><polygon class="cls-1" points="561.4 92.35 554.14 92.35 554.14 99.46 546.88 99.46 546.88 106.55 539.62 106.56 539.62 113.67 546.88 113.66 546.88 106.56 554.15 106.56 554.14 99.46 561.4 99.45 561.4 92.35 568.67 92.35 568.67 85.25 561.4 85.25 561.4 92.35"/><rect class="cls-1" x="517.83" y="127.88" width="7.27" height="7.12"/><rect class="cls-1" x="171.64" y="52.11" width="7.11" height="7.26"/><rect class="cls-1" x="178.74" y="44.84" width="7.11" height="7.26"/><rect class="cls-1" x="192.94" y="30.3" width="7.11" height="7.26"/><rect class="cls-1" x="185.85" y="37.57" width="7.11" height="7.27"/><polygon class="cls-1" points="207.15 23.03 200.04 23.03 200.04 30.29 207.15 30.29 207.15 23.04 214.26 23.04 214.26 15.77 207.15 15.77 207.15 23.03"/><polygon class="cls-1" points="446.1 51.91 439 51.91 439 59.17 446.1 59.17 446.1 66.43 453.21 66.43 453.21 59.16 446.1 59.16 446.1 51.91"/><polygon class="cls-1" points="431.88 37.38 424.78 37.38 424.78 30.12 417.68 30.12 417.68 22.85 410.58 22.85 410.58 15.59 403.47 15.59 403.47 22.86 410.57 22.86 410.58 30.12 417.67 30.12 417.67 37.39 424.78 37.39 424.78 44.65 431.88 44.64 431.89 51.91 439 51.91 438.99 44.64 431.89 44.64 431.88 37.38"/><rect class="cls-1" x="243.69" y="49.55" width="7.11" height="7.26"/><rect class="cls-1" x="265.01" y="27.76" width="7.11" height="7.26"/><polygon class="cls-1" points="257.91 42.28 250.8 42.28 250.8 49.55 257.91 49.55 257.91 42.28 265.02 42.28 265.02 35.02 257.91 35.02 257.91 42.28"/><rect class="cls-1" x="272.11" y="20.48" width="7.11" height="7.26"/><rect class="cls-1" x="314.77" y="64.07" width="7.11" height="7.27"/><rect class="cls-1" x="307.66" y="71.34" width="7.11" height="7.26"/><rect class="cls-1" x="293.45" y="85.87" width="7.11" height="7.27"/><polygon class="cls-1" points="286.35 100.4 286.34 100.4 286.34 100.4 279.24 100.4 279.24 107.66 279.25 107.66 286.34 107.66 286.36 107.66 286.36 100.41 293.46 100.41 293.46 93.14 286.35 93.14 286.35 100.4"/><rect class="cls-1" x="286.32" y="49.54" width="7.11" height="7.26"/><polygon class="cls-1" points="314.75 35 314.75 27.74 307.64 27.75 307.64 35 300.54 35 300.54 35.01 300.54 42.27 293.43 42.27 293.43 49.54 300.54 49.53 300.54 42.27 307.65 42.27 307.65 35.01 307.65 35.01 314.75 35"/><rect class="cls-1" x="314.74" y="20.47" width="7.11" height="7.26"/><rect class="cls-1" x="357.39" y="64.06" width="7.11" height="7.27"/><polygon class="cls-1" points="350.29 78.59 343.18 78.59 343.19 85.86 336.08 85.86 336.08 93.12 343.19 93.12 343.19 85.86 350.3 85.85 350.29 78.59 357.4 78.59 357.4 71.33 350.29 71.33 350.29 78.59"/><polygon class="cls-1" points="328.98 100.39 328.97 100.39 328.97 100.39 321.87 100.39 321.87 107.65 321.88 107.65 328.97 107.65 328.99 107.65 328.99 100.4 336.09 100.4 336.09 93.13 328.98 93.13 328.98 100.39"/><polygon class="cls-1" points="108.19 7.2 100.93 7.2 100.93 14.31 108.19 14.31 108.19 21.41 115.46 21.41 115.46 14.3 108.19 14.31 108.19 7.2"/><polygon class="cls-1" points="122.72 21.41 115.46 21.41 115.47 28.52 122.72 28.52 122.73 35.62 129.99 35.62 129.99 28.51 122.72 28.51 122.72 21.41"/><rect class="cls-1" x="130" y="35.61" width="7.26" height="7.11"/><rect class="cls-1" x="86.4" y="78.27" width="7.27" height="7.11"/><rect class="cls-1" x="79.14" y="71.16" width="7.26" height="7.11"/><polygon class="cls-1" points="57.34 56.96 64.6 56.96 64.6 64.06 71.87 64.06 71.87 56.95 64.6 56.95 64.6 49.85 57.33 49.85 57.33 42.76 50.07 42.76 50.07 49.87 57.33 49.87 57.34 56.96"/><rect class="cls-1" x="100.94" y="49.83" width="7.26" height="7.11"/><rect class="cls-1" x="108.2" y="56.93" width="7.27" height="7.11"/><polygon class="cls-1" points="122.73 64.03 115.47 64.04 115.48 71.14 122.74 71.14 122.74 78.25 130 78.24 130 71.14 122.74 71.14 122.73 64.03"/><rect class="cls-1" x="130.01" y="78.24" width="7.26" height="7.11"/><polygon class="cls-1" points="86.41 113.79 79.15 113.79 79.15 120.9 86.41 120.9 86.41 128.01 93.68 128 93.68 120.9 86.41 120.9 86.41 113.79"/><polygon class="cls-1" points="71.88 99.58 64.61 99.58 64.61 92.48 57.34 92.48 57.34 85.38 50.08 85.38 50.09 92.49 57.34 92.49 57.35 99.59 64.61 99.59 64.61 106.69 71.88 106.69 71.88 113.79 79.14 113.79 79.14 106.68 71.88 106.68 71.88 99.58"/><polygon class="cls-1" points="532.32 7.09 525.06 7.09 525.07 14.2 532.33 14.2 532.33 21.31 539.59 21.3 539.59 14.2 532.33 14.2 532.32 7.09"/><polygon class="cls-1" points="546.86 21.3 539.6 21.3 539.6 28.41 546.86 28.41 546.86 35.52 554.12 35.51 554.12 28.4 546.86 28.41 546.86 21.3"/><rect class="cls-1" x="554.14" y="35.51" width="7.26" height="7.11"/><rect class="cls-1" x="510.54" y="78.16" width="7.27" height="7.11"/><rect class="cls-1" x="503.27" y="71.05" width="7.26" height="7.11"/><polygon class="cls-1" points="481.47 56.85 488.74 56.85 488.74 63.95 496 63.95 496 56.84 488.74 56.84 488.74 49.74 481.47 49.74 481.47 42.65 474.21 42.65 474.21 49.76 481.47 49.76 481.47 56.85"/><rect class="cls-1" x="525.07" y="49.72" width="7.26" height="7.11"/><rect class="cls-1" x="532.34" y="56.83" width="7.27" height="7.11"/><polygon class="cls-1" points="546.87 63.92 539.61 63.93 539.61 71.04 546.87 71.03 546.87 78.14 554.13 78.14 554.13 71.03 546.87 71.03 546.87 63.92"/><rect class="cls-1" x="554.15" y="78.13" width="7.26" height="7.11"/><polygon class="cls-1" points="510.54 113.68 503.28 113.68 503.29 120.79 510.55 120.79 510.55 127.9 517.81 127.9 517.81 120.79 510.55 120.79 510.54 113.68"/><polygon class="cls-1" points="496.01 99.47 488.75 99.47 488.75 92.37 481.48 92.37 481.48 85.27 474.22 85.27 474.22 92.38 481.48 92.38 481.48 99.48 488.75 99.48 488.75 106.58 496.02 106.58 496.02 113.68 503.28 113.68 503.28 106.57 496.02 106.57 496.01 99.47"/><polygon class="cls-1" points="207.18 95.7 200.08 95.7 200.08 88.43 192.97 88.43 192.97 81.16 185.87 81.16 185.86 73.9 178.76 73.91 178.76 81.16 185.86 81.16 185.87 88.44 192.97 88.43 192.97 95.7 200.07 95.7 200.07 102.96 207.18 102.96 207.18 110.22 214.28 110.22 214.28 102.95 207.18 102.95 207.18 95.7"/><polygon class="cls-1" points="171.65 59.38 164.54 59.38 164.54 66.65 171.64 66.65 171.64 73.91 178.75 73.91 178.75 66.64 171.65 66.65 171.65 59.38"/><rect class="cls-1" x="439" y="66.45" width="7.11" height="7.26"/><rect class="cls-1" x="431.9" y="73.71" width="7.11" height="7.27"/><polygon class="cls-1" points="424.79 88.24 417.69 88.25 417.69 95.5 424.8 95.5 424.8 88.24 431.9 88.24 431.9 80.98 424.79 80.98 424.79 88.24"/><polygon class="cls-1" points="410.6 102.78 403.49 102.78 403.49 110.04 410.6 110.04 410.6 102.78 417.7 102.78 417.7 95.52 410.59 95.52 410.6 102.78"/><rect class="cls-1" x="250.81" y="71.36" width="7.11" height="7.26"/><polygon class="cls-1" points="272.13 85.87 265.04 85.88 265.04 78.61 257.93 78.61 257.93 85.88 265.03 85.88 265.03 93.15 272.13 93.15 272.14 100.41 279.25 100.41 279.24 93.14 272.13 93.14 272.13 85.87"/><polygon class="cls-1" points="243.71 56.82 236.6 56.82 236.6 64.1 243.7 64.09 243.71 71.36 250.81 71.36 250.81 64.09 243.72 64.09 243.71 56.82"/><polygon class="cls-1" points="321.86 49.54 314.75 49.54 314.75 56.8 321.86 56.8 321.87 64.06 328.97 64.05 328.97 56.79 321.86 56.79 321.86 49.54"/><rect class="cls-1" x="307.65" y="42.27" width="7.1" height="7.27"/><polygon class="cls-1" points="293.44 20.48 286.33 20.48 286.33 13.21 279.22 13.21 279.23 20.48 286.33 20.48 286.33 27.75 293.43 27.74 293.43 35 300.54 35 300.54 27.74 293.44 27.74 293.44 20.48"/><rect class="cls-1" x="293.44" y="71.35" width="7.1" height="7.26"/><polygon class="cls-1" points="307.66 78.6 300.55 78.6 300.56 85.87 307.66 85.86 307.66 93.14 314.76 93.14 314.76 85.86 307.67 85.86 307.66 78.6"/><rect class="cls-1" x="314.76" y="93.13" width="7.11" height="7.27"/><polygon class="cls-1" points="286.33 56.81 279.23 56.81 279.23 64.09 286.33 64.08 286.33 71.35 293.44 71.35 293.44 64.08 286.33 64.08 286.33 56.81"/><polygon class="cls-1" points="364.49 49.52 357.39 49.53 357.39 42.25 350.28 42.26 350.28 49.53 357.39 49.53 357.39 56.79 364.48 56.78 364.48 64.04 371.6 64.04 371.6 56.78 364.49 56.78 364.49 49.52"/><polygon class="cls-1" points="343.17 34.99 343.17 27.73 336.06 27.73 336.06 20.47 328.96 20.47 328.96 13.2 321.85 13.2 321.85 20.47 328.95 20.47 328.95 27.73 336.06 27.73 336.06 34.99 343.17 34.99"/><rect class="cls-1" x="343.15" y="34.99" width="7.12" height="7.27"/><path class="cls-1" d="M0,262.92H18.63v1.71H10.18V286H8.42V264.64H0Z"/><path class="cls-1" d="M30.55,262.92V286H28.79V262.92Z"/><path class="cls-1" d="M43.22,262.91H59.27v1.71H45v9.19H57.15v1.65H45v8.78H59.28V286H43.22Z"/><path class="cls-1" d="M80.77,262.9a9.12,9.12,0,0,1,3.37.59,7.28,7.28,0,0,1,2.5,1.61,7,7,0,0,1,1.56,2.37,7.79,7.79,0,0,1,.18,5.19,7.42,7.42,0,0,1-1,2.07,7,7,0,0,1-1.66,1.64,8,8,0,0,1-2.28,1.08L89.55,286H87.4l-5.9-8.19a2.19,2.19,0,0,1-.36,0h-8.9V286H70.48v-23Zm-8.53,1.66v11.59h8.48a7,7,0,0,0,2.69-.48,5.91,5.91,0,0,0,2-1.27,5.17,5.17,0,0,0,1.21-1.85,6.11,6.11,0,0,0,0-4.4,5.17,5.17,0,0,0-1.21-1.85,6.07,6.07,0,0,0-2-1.27,7.27,7.27,0,0,0-2.7-.47Z"/><path class="cls-1" d="M110.54,262.9a8.92,8.92,0,0,1,3.37.59,7.23,7.23,0,0,1,2.5,1.61,7,7,0,0,1,1.56,2.36,7.79,7.79,0,0,1,.18,5.19,7.42,7.42,0,0,1-1,2.07,6.81,6.81,0,0,1-1.66,1.64,8,8,0,0,1-2.28,1.08l6.14,8.51h-2.15l-5.9-8.18a2.17,2.17,0,0,1-.36,0H102V286h-1.76V262.9ZM102,264.55v11.59h8.48a7.25,7.25,0,0,0,2.69-.47,5.94,5.94,0,0,0,2-1.28,5.13,5.13,0,0,0,1.21-1.84,6.28,6.28,0,0,0,0-4.41,5.25,5.25,0,0,0-1.21-1.85,6.07,6.07,0,0,0-2-1.27,7.27,7.27,0,0,0-2.7-.47Z"/><path class="cls-1" d="M139.71,262.89l10.73,23.05h-1.95l-2.39-5.2H131.42l-2.36,5.2h-2l10.72-23.06Zm-7.51,16.2h13.12l-6.56-14.31Z"/><path class="cls-1" d="M175.11,262.88h9.14a11.52,11.52,0,0,1,4.7.9,9.68,9.68,0,0,1,3.4,2.45,10.49,10.49,0,0,1,2.07,3.65,15,15,0,0,1,0,9.06,10.58,10.58,0,0,1-2.07,3.67,9.49,9.49,0,0,1-3.39,2.44,11.92,11.92,0,0,1-4.71.89h-9.13Zm1.77,1.71v19.63h7.27a9.7,9.7,0,0,0,3.93-.75A8.4,8.4,0,0,0,191,281.4a9.1,9.1,0,0,0,1.78-3.11,12.48,12.48,0,0,0,0-7.77,9,9,0,0,0-1.78-3.11,8.44,8.44,0,0,0-2.88-2.07,9.65,9.65,0,0,0-3.92-.75Z"/><path class="cls-1" d="M206.29,262.87h16.05v1.71H208.06v9.19h12.16v1.65H208.06v8.78h14.29v1.72h-16Z"/><path class="cls-1" d="M246.19,274.39a11.1,11.1,0,0,1,1-4.66,12.41,12.41,0,0,1,2.68-3.8,12.82,12.82,0,0,1,4-2.57,12.2,12.2,0,0,1,4.77-.95,12.36,12.36,0,0,1,4.81.95,12.77,12.77,0,0,1,3.95,2.57,12,12,0,0,1,2.67,3.8,11.65,11.65,0,0,1,0,9.31,12.12,12.12,0,0,1-2.66,3.8,12.82,12.82,0,0,1-4,2.57,12.55,12.55,0,0,1-9.58,0,12.6,12.6,0,0,1-3.95-2.57,12.09,12.09,0,0,1-2.68-3.79A11.1,11.1,0,0,1,246.19,274.39Zm6.05,0a6.13,6.13,0,0,0,.49,2.45,6.06,6.06,0,0,0,1.36,2,6.68,6.68,0,0,0,2,1.33,6.32,6.32,0,0,0,2.47.48,6.27,6.27,0,0,0,4.5-1.81,6.3,6.3,0,0,0,1.35-2,6.26,6.26,0,0,0-1.35-6.9,6.29,6.29,0,0,0-2-1.33,6.55,6.55,0,0,0-5,0,6.45,6.45,0,0,0-2,1.33,6.19,6.19,0,0,0-1.85,4.45Z"/><path class="cls-1" d="M280.35,262.85h10.31a10.48,10.48,0,0,1,4.06.72,8.43,8.43,0,0,1,2.86,1.95,7.91,7.91,0,0,1,1.69,2.83,10,10,0,0,1,.55,3.34,10.41,10.41,0,0,1-.55,3.46,7.91,7.91,0,0,1-1.69,2.85,8.07,8.07,0,0,1-2.86,1.95,10.48,10.48,0,0,1-4.06.73h-4.31v5.23h-6Zm6,5.38v7.07h4a3.19,3.19,0,0,0,2.67-1,4.07,4.07,0,0,0,.77-2.55,4.83,4.83,0,0,0-.18-1.32,3,3,0,0,0-.59-1.12,2.87,2.87,0,0,0-1.08-.77,4,4,0,0,0-1.59-.28Z"/><path class="cls-1" d="M307.91,274.37a11.09,11.09,0,0,1,1-4.65,12.18,12.18,0,0,1,2.68-3.8,12.77,12.77,0,0,1,3.95-2.57,12.1,12.1,0,0,1,4.78-1,12.3,12.3,0,0,1,4.8.94,12.82,12.82,0,0,1,4,2.57,12.1,12.1,0,0,1,2.67,3.8,11.41,11.41,0,0,1,1,4.66,11.2,11.2,0,0,1-1,4.65,12,12,0,0,1-2.67,3.8,12.62,12.62,0,0,1-3.95,2.58,12.35,12.35,0,0,1-4.81.94,12.22,12.22,0,0,1-4.77-.94,12.82,12.82,0,0,1-4-2.57,12.29,12.29,0,0,1-2.68-3.8A11.1,11.1,0,0,1,307.91,274.37Zm6,0a6.18,6.18,0,0,0,.5,2.46,6,6,0,0,0,1.36,2,6.45,6.45,0,0,0,2,1.33,6.19,6.19,0,0,0,2.47.49,6.26,6.26,0,0,0,2.5-.49,6.46,6.46,0,0,0,2-1.33,6.19,6.19,0,0,0,1.35-2,6.31,6.31,0,0,0,0-4.9,6,6,0,0,0-1.34-2,6.38,6.38,0,0,0-4.51-1.82,6.37,6.37,0,0,0-2.47.49,6.63,6.63,0,0,0-2,1.33,6.2,6.2,0,0,0-1.37,2A6.34,6.34,0,0,0,314,274.37Z"/><path class="cls-1" d="M353.49,262.83a10.18,10.18,0,0,1,3.89.67,7.48,7.48,0,0,1,2.73,1.82,7.29,7.29,0,0,1,1.6,2.68,10,10,0,0,1,.53,3.26,9.84,9.84,0,0,1-.29,2.36,8,8,0,0,1-.85,2.14,7.55,7.55,0,0,1-1.44,1.81,7.24,7.24,0,0,1-2,1.34l5.06,7h-7.16l-4.43-6.18H348v6.18h-6V262.84ZM348,268.22v6.14h5.12a4.09,4.09,0,0,0,1.53-.25,2.9,2.9,0,0,0,1-.66,2.61,2.61,0,0,0,.57-1,3.74,3.74,0,0,0,.18-1.15,3.31,3.31,0,0,0-.75-2.22,3.19,3.19,0,0,0-2.55-.89Z"/><path class="cls-1" d="M370.47,262.83H391v5.74h-7.28v17.32h-6V268.56h-7.28Z"/><path class="cls-1" d="M421.21,262.82v13a11.92,11.92,0,0,1-.7,4.14,9.41,9.41,0,0,1-2.07,3.34,9.66,9.66,0,0,1-3.37,2.24,13.61,13.61,0,0,1-9.25,0,9.5,9.5,0,0,1-3.36-2.23,9.4,9.4,0,0,1-2-3.34,12.15,12.15,0,0,1-.69-4.14v-13h6v12.62a5.62,5.62,0,0,0,1.19,3.85,4.55,4.55,0,0,0,3.54,1.33,4.63,4.63,0,0,0,3.58-1.34,5.48,5.48,0,0,0,1.21-3.84V262.82Z"/><path class="cls-1" d="M431.37,285.87V262.81h5.09l10.43,12.89V262.81h6v23.06h-5.06L437.35,273v12.86Z"/><path class="cls-1" d="M469.3,262.8v23.06h-6V262.81Z"/><path class="cls-1" d="M479.79,262.8h10.84a11.86,11.86,0,0,1,4.81.91,9.82,9.82,0,0,1,3.46,2.5,10.92,10.92,0,0,1,2.08,3.68,14.49,14.49,0,0,1,0,8.9,10.48,10.48,0,0,1-2.08,3.66,9.7,9.7,0,0,1-3.46,2.49,11.86,11.86,0,0,1-4.81.92H479.79Zm6,5.73v11.62h4.4a6,6,0,0,0,2.37-.43,4.57,4.57,0,0,0,1.71-1.2,5,5,0,0,0,1-1.83,7.65,7.65,0,0,0,.34-2.36,6.18,6.18,0,0,0-1.38-4.2,5.08,5.08,0,0,0-4.07-1.6Z"/><path class="cls-1" d="M523.33,262.79l9.44,23.06h-6.53L525,282.48h-9.2l-1.29,3.37H508l9.45-23.06Zm-3,7.57-2.57,6.77h5.12Z"/><path class="cls-1" d="M541.45,262.79h10.84a11.86,11.86,0,0,1,4.81.92,9.7,9.7,0,0,1,3.46,2.49,10.8,10.8,0,0,1,2.08,3.69,13.75,13.75,0,0,1,.71,4.43,14.17,14.17,0,0,1-.7,4.46,10.78,10.78,0,0,1-2.08,3.67,9.89,9.89,0,0,1-3.46,2.48,11.69,11.69,0,0,1-4.81.92H541.46Zm6,5.73v11.62h4.4a6.19,6.19,0,0,0,2.37-.43,4.85,4.85,0,0,0,1.7-1.2,5.08,5.08,0,0,0,1-1.83,8,8,0,0,0,.34-2.37,6.22,6.22,0,0,0-1.38-4.2,5.1,5.1,0,0,0-4.07-1.59Z"/><path class="cls-1" d="M572.84,262.78h17.94v5.74H578.83v3.31h9.82v5.35h-9.83v3h11.95v5.7H572.85Z"/><path class="cls-1" d="M605.49,278.91v.15a1.28,1.28,0,0,0,.24.69,2.26,2.26,0,0,0,.72.68,4.42,4.42,0,0,0,1.23.52,6.48,6.48,0,0,0,1.76.21,4.27,4.27,0,0,0,2.32-.46,1.27,1.27,0,0,0,.65-1,1.5,1.5,0,0,0-.93-1.27,18.46,18.46,0,0,0-3.06-1.25c-.94-.29-1.91-.64-2.92-1a13.87,13.87,0,0,1-2.77-1.5,7.88,7.88,0,0,1-2.08-2.15,5.5,5.5,0,0,1-.82-3,6.43,6.43,0,0,1,.67-3,6.66,6.66,0,0,1,1.88-2.25,8.88,8.88,0,0,1,2.89-1.43,12.66,12.66,0,0,1,3.69-.51,13.51,13.51,0,0,1,3.79.52,9.27,9.27,0,0,1,3,1.49,7.28,7.28,0,0,1,2,2.35,6.47,6.47,0,0,1,.73,3.09v.33h-5.84v-.21a1.93,1.93,0,0,0-.22-.86,2.4,2.4,0,0,0-.68-.79,3.47,3.47,0,0,0-1.12-.58,5,5,0,0,0-1.57-.22,3.73,3.73,0,0,0-2.19.49,1.35,1.35,0,0,0-.66,1.08c0,.45.3.83.89,1.15a22.12,22.12,0,0,0,3,1.18c.8.28,1.71.62,2.72,1a13.57,13.57,0,0,1,2.86,1.54,8.83,8.83,0,0,1,2.25,2.27,5.64,5.64,0,0,1,.92,3.24,6,6,0,0,1-2.65,5.11,9.2,9.2,0,0,1-2.94,1.31,14.84,14.84,0,0,1-3.7.44,15.75,15.75,0,0,1-3.91-.47,10.11,10.11,0,0,1-3.14-1.38,6.67,6.67,0,0,1-2.1-2.23,5.91,5.91,0,0,1-.76-3v-.27Z"/><path class="cls-1" d="M4.49,295.64a2.44,2.44,0,0,1,.68,1.8,2.5,2.5,0,0,1-.68,1.83,2.41,2.41,0,0,1-1.8.73,2.36,2.36,0,0,1-1.79-.73,2.5,2.5,0,0,1-.7-1.83,2.46,2.46,0,0,1,.68-1.8,2.42,2.42,0,0,1,1.8-.7,2.47,2.47,0,0,1,1.81.7"/><path class="cls-1" d="M13.38,295.63a2.45,2.45,0,0,1,.69,1.81,2.47,2.47,0,0,1-.68,1.82,2.44,2.44,0,0,1-1.81.74,2.4,2.4,0,0,1-1.79-.73,2.55,2.55,0,0,1-.7-1.83,2.54,2.54,0,0,1,4.29-1.81"/><path class="cls-1" d="M22.28,295.63a2.76,2.76,0,0,1,0,3.63,2.43,2.43,0,0,1-1.81.74,2.36,2.36,0,0,1-1.78-.74,2.49,2.49,0,0,1-.7-1.82,2.43,2.43,0,0,1,.68-1.81,2.46,2.46,0,0,1,1.8-.7,2.51,2.51,0,0,1,1.81.7"/><path class="cls-1" d="M31.17,295.63a2.76,2.76,0,0,1,0,3.63,2.41,2.41,0,0,1-1.8.73,2.36,2.36,0,0,1-1.79-.73,2.73,2.73,0,0,1,0-3.63,2.45,2.45,0,0,1,1.81-.7,2.51,2.51,0,0,1,1.8.7"/><path class="cls-1" d="M40.07,295.63A2.55,2.55,0,0,1,38.26,300a2.36,2.36,0,0,1-1.79-.73,2.54,2.54,0,0,1-.7-1.83,2.46,2.46,0,0,1,.68-1.8,2.43,2.43,0,0,1,1.81-.7,2.49,2.49,0,0,1,1.81.7"/><path class="cls-1" d="M48.94,295.62a2.52,2.52,0,0,1,.68,1.81,2.5,2.5,0,0,1-.68,1.83,2.47,2.47,0,0,1-1.81.73,2.36,2.36,0,0,1-1.78-.73,2.47,2.47,0,0,1-.7-1.83,2.44,2.44,0,0,1,.68-1.8,2.41,2.41,0,0,1,1.8-.71,2.53,2.53,0,0,1,1.81.7"/><path class="cls-1" d="M57.83,295.62a2.76,2.76,0,0,1,0,3.63A2.4,2.4,0,0,1,56,300a2.35,2.35,0,0,1-1.79-.74,2.73,2.73,0,0,1,0-3.63,2.45,2.45,0,0,1,1.81-.7,2.51,2.51,0,0,1,1.8.7"/><path class="cls-1" d="M66.72,295.62a2.76,2.76,0,0,1,0,3.63,2.4,2.4,0,0,1-1.8.73,2.32,2.32,0,0,1-1.78-.73,2.72,2.72,0,0,1,0-3.63,2.68,2.68,0,0,1,3.61,0"/><path class="cls-1" d="M75.61,295.62a2.43,2.43,0,0,1,.69,1.8,2.48,2.48,0,0,1-.68,1.83,2.43,2.43,0,0,1-1.8.73,2.33,2.33,0,0,1-1.79-.73,2.5,2.5,0,0,1,1.78-4.33,2.45,2.45,0,0,1,1.8.7"/><path class="cls-1" d="M84.51,295.62a2.44,2.44,0,0,1,.68,1.8,2.5,2.5,0,0,1-.68,1.83,2.4,2.4,0,0,1-1.8.73,2.36,2.36,0,0,1-1.79-.73,2.51,2.51,0,0,1-.7-1.83,2.46,2.46,0,0,1,.68-1.8,2.68,2.68,0,0,1,3.61,0"/><path class="cls-1" d="M93.4,295.61a2.76,2.76,0,0,1,0,3.63,2.4,2.4,0,0,1-1.8.74,2.36,2.36,0,0,1-1.78-.73,2.55,2.55,0,0,1,3.58-3.64"/><path class="cls-1" d="M102.29,295.61a2.43,2.43,0,0,1,.69,1.81,2.47,2.47,0,0,1-.68,1.82,2.43,2.43,0,0,1-1.8.73,2.3,2.3,0,0,1-1.79-.73,2.55,2.55,0,0,1,3.58-3.63"/><path class="cls-1" d="M111.19,295.61a2.76,2.76,0,0,1,0,3.63,2.4,2.4,0,0,1-1.8.73,2.36,2.36,0,0,1-1.79-.73,2.55,2.55,0,0,1,3.59-3.63"/><path class="cls-1" d="M120.08,295.61a2.76,2.76,0,0,1,0,3.63,2.4,2.4,0,0,1-1.8.73,2.32,2.32,0,0,1-1.78-.73,2.55,2.55,0,0,1,3.58-3.63"/><path class="cls-1" d="M129,295.6a2.55,2.55,0,0,1-1.8,4.37,2.37,2.37,0,0,1-1.79-.73,2.73,2.73,0,0,1,0-3.64,2.49,2.49,0,0,1,1.82-.7,2.52,2.52,0,0,1,1.8.7"/><path class="cls-1" d="M137.85,295.6a2.76,2.76,0,0,1,0,3.63,2.42,2.42,0,0,1-1.8.74,2.37,2.37,0,0,1-1.79-.74,2.73,2.73,0,0,1,0-3.63,2.44,2.44,0,0,1,1.8-.7,2.51,2.51,0,0,1,1.81.7"/><path class="cls-1" d="M146.74,295.6a2.55,2.55,0,0,1-1.8,4.36,2.36,2.36,0,0,1-1.79-.73,2.73,2.73,0,0,1,0-3.63,2.45,2.45,0,0,1,1.81-.7,2.51,2.51,0,0,1,1.8.7"/><path class="cls-1" d="M155.64,295.6a2.76,2.76,0,0,1,0,3.63,2.42,2.42,0,0,1-1.81.73,2.32,2.32,0,0,1-1.78-.73,2.46,2.46,0,0,1-.71-1.83,2.38,2.38,0,0,1,2.49-2.5,2.49,2.49,0,0,1,1.81.7"/><path class="cls-1" d="M164.53,295.59a2.78,2.78,0,0,1,0,3.64,2.45,2.45,0,0,1-1.8.73,2.34,2.34,0,0,1-1.79-.73,2.51,2.51,0,0,1-.7-1.83,2.46,2.46,0,0,1,.68-1.8,2.41,2.41,0,0,1,1.8-.71,2.51,2.51,0,0,1,1.81.7"/><path class="cls-1" d="M173.42,295.59a2.73,2.73,0,0,1,0,3.63,2.4,2.4,0,0,1-1.8.74,2.37,2.37,0,0,1-1.79-.74,2.73,2.73,0,0,1,0-3.63,2.45,2.45,0,0,1,1.81-.7,2.51,2.51,0,0,1,1.8.7"/><path class="cls-1" d="M182.32,295.59a2.76,2.76,0,0,1,0,3.63,2.42,2.42,0,0,1-1.81.73,2.34,2.34,0,0,1-1.78-.73,2.5,2.5,0,0,1-.71-1.82,2.38,2.38,0,0,1,2.49-2.51,2.51,2.51,0,0,1,1.81.7"/><path class="cls-1" d="M191.21,295.59a2.76,2.76,0,0,1,0,3.63,2.41,2.41,0,0,1-1.8.73,2.34,2.34,0,0,1-1.79-.73,2.73,2.73,0,0,1,0-3.63,2.44,2.44,0,0,1,1.8-.7,2.51,2.51,0,0,1,1.81.7"/><path class="cls-1" d="M200.1,295.59a2.44,2.44,0,0,1,.68,1.8,2.53,2.53,0,0,1-.67,1.83,2.43,2.43,0,0,1-1.81.73,2.36,2.36,0,0,1-1.79-.73,2.5,2.5,0,0,1-.7-1.83,2.46,2.46,0,0,1,.68-1.8,2.43,2.43,0,0,1,1.81-.7,2.47,2.47,0,0,1,1.8.7"/><path class="cls-1" d="M209,295.58a2.79,2.79,0,0,1,0,3.63,2.43,2.43,0,0,1-1.81.74,2.37,2.37,0,0,1-1.78-.73,2.47,2.47,0,0,1-.7-1.83,2.4,2.4,0,0,1,.68-1.81,2.44,2.44,0,0,1,1.8-.7,2.51,2.51,0,0,1,1.81.7"/><path class="cls-1" d="M217.87,295.58a2.76,2.76,0,0,1,0,3.63,2.44,2.44,0,0,1-1.8.74,2.34,2.34,0,0,1-1.79-.74,2.5,2.5,0,0,1-.71-1.82,2.37,2.37,0,0,1,2.5-2.51,2.52,2.52,0,0,1,1.8.7"/><path class="cls-1" d="M226.76,295.58a2.76,2.76,0,0,1,0,3.63,2.41,2.41,0,0,1-1.8.73,2.36,2.36,0,0,1-1.79-.73,2.49,2.49,0,0,1-.7-1.82,2.43,2.43,0,0,1,.68-1.81,2.46,2.46,0,0,1,1.81-.7,2.51,2.51,0,0,1,1.8.7"/><path class="cls-1" d="M235.65,295.58a2.42,2.42,0,0,1,.68,1.8,2.46,2.46,0,0,1-.68,1.83,2.41,2.41,0,0,1-1.8.73,2.36,2.36,0,0,1-1.79-.73,2.5,2.5,0,0,1-.7-1.83,2.46,2.46,0,0,1,.68-1.8,2.43,2.43,0,0,1,1.81-.7,2.47,2.47,0,0,1,1.8.7"/><path class="cls-1" d="M244.55,295.57a2.78,2.78,0,0,1,0,3.64,2.45,2.45,0,0,1-1.8.73,2.42,2.42,0,0,1-1.8-.73,2.55,2.55,0,0,1-.7-1.83,2.38,2.38,0,0,1,2.5-2.51,2.52,2.52,0,0,1,1.8.7"/><path class="cls-1" d="M253.44,295.57a2.76,2.76,0,0,1,0,3.63,2.42,2.42,0,0,1-1.8.74,2.37,2.37,0,0,1-1.79-.74,2.55,2.55,0,0,1,3.59-3.63"/><path class="cls-1" d="M262.33,295.57a2.73,2.73,0,0,1,0,3.63,2.41,2.41,0,0,1-1.79.73,2.37,2.37,0,0,1-1.8-.73,2.53,2.53,0,0,1-.7-1.82,2.37,2.37,0,0,1,2.49-2.51,2.51,2.51,0,0,1,1.8.7"/><path class="cls-1" d="M271.23,295.57a2.76,2.76,0,0,1,0,3.63,2.41,2.41,0,0,1-1.8.73,2.34,2.34,0,0,1-1.79-.73,2.5,2.5,0,0,1-.71-1.83,2.38,2.38,0,0,1,2.5-2.5,2.47,2.47,0,0,1,1.8.7"/><path class="cls-1" d="M280.12,295.57a2.44,2.44,0,0,1,.68,1.8,2.5,2.5,0,0,1-.68,1.83,2.45,2.45,0,0,1-1.8.73,2.36,2.36,0,0,1-1.79-.73,2.51,2.51,0,0,1-.7-1.83,2.46,2.46,0,0,1,.68-1.8,2.68,2.68,0,0,1,3.61,0"/><path class="cls-1" d="M289,295.56a2.73,2.73,0,0,1,0,3.63,2.56,2.56,0,0,1-3.59,0,2.55,2.55,0,0,1-.7-1.83,2.54,2.54,0,0,1,4.29-1.81"/><path class="cls-1" d="M297.91,295.56a2.76,2.76,0,0,1,0,3.63,2.41,2.41,0,0,1-1.8.73,2.31,2.31,0,0,1-1.79-.73,2.5,2.5,0,0,1-.71-1.82,2.38,2.38,0,0,1,2.5-2.51,2.51,2.51,0,0,1,1.8.7"/><path class="cls-1" d="M306.78,295.56a2.76,2.76,0,0,1,0,3.63,2.41,2.41,0,0,1-1.8.73,2.34,2.34,0,0,1-1.79-.73,2.73,2.73,0,0,1,0-3.63,2.45,2.45,0,0,1,1.81-.7,2.52,2.52,0,0,1,1.8.7"/><path class="cls-1" d="M315.68,295.56a2.49,2.49,0,0,1,.67,1.8,2.53,2.53,0,0,1-.67,1.83,2.43,2.43,0,0,1-1.81.73,2.36,2.36,0,0,1-1.79-.73,2.5,2.5,0,0,1-.7-1.83,2.46,2.46,0,0,1,.68-1.8,2.43,2.43,0,0,1,1.81-.7,2.49,2.49,0,0,1,1.81.7"/><path class="cls-1" d="M324.57,295.55a2.55,2.55,0,0,1-1.81,4.37,2.37,2.37,0,0,1-1.78-.73,2.47,2.47,0,0,1-.7-1.83,2.37,2.37,0,0,1,2.48-2.51,2.53,2.53,0,0,1,1.81.7"/><path class="cls-1" d="M333.46,295.55a2.76,2.76,0,0,1,0,3.63,2.42,2.42,0,0,1-1.8.74,2.35,2.35,0,0,1-1.79-.74,2.73,2.73,0,0,1,0-3.63,2.45,2.45,0,0,1,1.81-.7,2.52,2.52,0,0,1,1.8.7"/><path class="cls-1" d="M342.36,295.55a2.79,2.79,0,0,1,0,3.63,2.43,2.43,0,0,1-1.81.73,2.36,2.36,0,0,1-1.79-.73,2.49,2.49,0,0,1-.7-1.82,2.43,2.43,0,0,1,.69-1.81,2.41,2.41,0,0,1,1.8-.7,2.55,2.55,0,0,1,1.81.7"/><path class="cls-1" d="M351.25,295.55a2.79,2.79,0,0,1,0,3.63,2.41,2.41,0,0,1-1.8.73,2.34,2.34,0,0,1-1.79-.73,2.5,2.5,0,0,1-.7-1.83,2.46,2.46,0,0,1,.68-1.8,2.41,2.41,0,0,1,1.81-.7,2.48,2.48,0,0,1,1.8.7"/><path class="cls-1" d="M360.15,295.54a2.81,2.81,0,0,1,0,3.64,2.47,2.47,0,0,1-1.81.73,2.36,2.36,0,0,1-1.79-.73,2.51,2.51,0,0,1-.7-1.83,2.44,2.44,0,0,1,.68-1.8,2.42,2.42,0,0,1,1.81-.71,2.55,2.55,0,0,1,1.81.7"/><path class="cls-1" d="M369,295.54a2.51,2.51,0,0,1,.69,1.81,2.48,2.48,0,0,1-.69,1.82,2.4,2.4,0,0,1-1.8.74,2.37,2.37,0,0,1-1.79-.74,2.76,2.76,0,0,1,0-3.63,2.45,2.45,0,0,1,1.81-.7,2.49,2.49,0,0,1,1.8.7"/><path class="cls-1" d="M377.92,295.54a2.73,2.73,0,0,1,0,3.63,2.38,2.38,0,0,1-1.8.73,2.32,2.32,0,0,1-1.78-.73,2.45,2.45,0,0,1-.7-1.82,2.35,2.35,0,0,1,2.48-2.51,2.47,2.47,0,0,1,1.8.7"/><path class="cls-1" d="M386.82,295.54a2.76,2.76,0,0,1,0,3.63,2.4,2.4,0,0,1-1.8.73,2.36,2.36,0,0,1-1.79-.73,2.55,2.55,0,0,1,3.59-3.63"/><path class="cls-1" d="M395.69,295.54a2.73,2.73,0,0,1,0,3.63,2.4,2.4,0,0,1-1.8.73,2.36,2.36,0,0,1-1.79-.73,2.5,2.5,0,0,1-.7-1.83,2.46,2.46,0,0,1,.68-1.8,2.41,2.41,0,0,1,1.81-.7,2.45,2.45,0,0,1,1.8.7"/><path class="cls-1" d="M404.58,295.53a2.73,2.73,0,0,1,0,3.63,2.55,2.55,0,0,1-3.58,0,2.52,2.52,0,0,1-.71-1.83,2.54,2.54,0,0,1,4.29-1.81"/><path class="cls-1" d="M413.48,295.53a2.76,2.76,0,0,1,0,3.63,2.43,2.43,0,0,1-1.81.74,2.36,2.36,0,0,1-1.78-.74,2.49,2.49,0,0,1-.7-1.82,2.35,2.35,0,0,1,2.48-2.51,2.51,2.51,0,0,1,1.81.7"/><path class="cls-1" d="M422.37,295.53a2.55,2.55,0,0,1-1.8,4.36,2.36,2.36,0,0,1-1.79-.73,2.73,2.73,0,0,1,0-3.63,2.46,2.46,0,0,1,1.8-.7,2.51,2.51,0,0,1,1.81.7"/><path class="cls-1" d="M431.26,295.53a2.43,2.43,0,0,1,.69,1.8,2.5,2.5,0,0,1-.68,1.83,2.42,2.42,0,0,1-1.81.73,2.35,2.35,0,0,1-1.78-.73,2.5,2.5,0,0,1-.71-1.83,2.37,2.37,0,0,1,2.49-2.5,2.43,2.43,0,0,1,1.8.7"/><path class="cls-1" d="M440.16,295.52a2.55,2.55,0,0,1-1.8,4.37,2.4,2.4,0,0,1-1.79-.73,2.51,2.51,0,0,1-.7-1.83,2.38,2.38,0,0,1,2.48-2.51,2.51,2.51,0,0,1,1.81.7"/><path class="cls-1" d="M449.05,295.52a2.43,2.43,0,0,1,.69,1.81,2.43,2.43,0,0,1-2.49,2.56,2.37,2.37,0,0,1-1.79-.74,2.55,2.55,0,0,1,3.59-3.63"/><path class="cls-1" d="M458,295.52a2.76,2.76,0,0,1,0,3.63,2.43,2.43,0,0,1-1.81.73,2.32,2.32,0,0,1-1.78-.73,2.5,2.5,0,0,1-.71-1.82,2.38,2.38,0,0,1,2.49-2.51,2.53,2.53,0,0,1,1.81.7"/><path class="cls-1" d="M466.84,295.52a2.76,2.76,0,0,1,0,3.63,2.41,2.41,0,0,1-1.8.73,2.34,2.34,0,0,1-1.79-.73,2.5,2.5,0,0,1-.71-1.83,2.55,2.55,0,0,1,4.3-1.8"/><path class="cls-1" d="M475.71,295.52a2.44,2.44,0,0,1,.68,1.8,2.5,2.5,0,0,1-.68,1.83,2.45,2.45,0,0,1-1.8.73,2.34,2.34,0,0,1-1.79-.73,2.56,2.56,0,0,1-.71-1.83,2.54,2.54,0,0,1,4.3-1.8"/><path class="cls-1" d="M484.61,295.51a2.56,2.56,0,0,1-1.8,4.37,2.34,2.34,0,0,1-1.79-.74,2.5,2.5,0,0,1,1.78-4.33,2.55,2.55,0,0,1,1.81.7"/><path class="cls-1" d="M493.5,295.51a2.79,2.79,0,0,1,0,3.63,2.43,2.43,0,0,1-1.8.73,2.33,2.33,0,0,1-1.79-.73,2.54,2.54,0,0,1-.71-1.82,2.37,2.37,0,0,1,2.5-2.51,2.54,2.54,0,0,1,1.8.7"/><path class="cls-1" d="M502.39,295.51a2.76,2.76,0,0,1,0,3.63,2.41,2.41,0,0,1-1.8.73,2.34,2.34,0,0,1-1.79-.73,2.73,2.73,0,0,1,0-3.63,2.45,2.45,0,0,1,1.81-.7,2.52,2.52,0,0,1,1.8.7"/><path class="cls-1" d="M511.28,295.51a2.44,2.44,0,0,1,.68,1.8,2.5,2.5,0,0,1-.68,1.83,2.39,2.39,0,0,1-1.79.73,2.33,2.33,0,0,1-1.79-.73,2.72,2.72,0,0,1,0-3.63,2.43,2.43,0,0,1,1.82-.7,2.46,2.46,0,0,1,1.79.7"/><path class="cls-1" d="M520.18,295.5a2.76,2.76,0,0,1,0,3.63,2.42,2.42,0,0,1-1.8.74,2.38,2.38,0,0,1-1.79-.73,2.51,2.51,0,0,1-.7-1.83,2.35,2.35,0,0,1,2.49-2.51,2.52,2.52,0,0,1,1.8.7"/><path class="cls-1" d="M529.07,295.5a2.76,2.76,0,0,1,0,3.63,2.42,2.42,0,0,1-1.8.74,2.37,2.37,0,0,1-1.79-.74,2.49,2.49,0,0,1-.7-1.82,2.37,2.37,0,0,1,2.49-2.51,2.51,2.51,0,0,1,1.8.7"/><path class="cls-1" d="M538,295.5a2.73,2.73,0,0,1,0,3.63,2.57,2.57,0,0,1-3.59,0A2.55,2.55,0,0,1,538,295.5"/><path class="cls-1" d="M546.86,295.5a2.76,2.76,0,0,1,0,3.63,2.41,2.41,0,0,1-1.8.73,2.36,2.36,0,0,1-1.79-.73,2.5,2.5,0,0,1-.71-1.83,2.46,2.46,0,0,1,.68-1.8,2.43,2.43,0,0,1,1.82-.7,2.47,2.47,0,0,1,1.8.7"/><path class="cls-1" d="M555.75,295.49a2.75,2.75,0,0,1,0,3.64,2.45,2.45,0,0,1-1.8.73,2.4,2.4,0,0,1-1.79-.73,2.51,2.51,0,0,1-.7-1.83,2.38,2.38,0,0,1,2.49-2.51,2.51,2.51,0,0,1,1.8.7"/><path class="cls-1" d="M564.62,295.49a2.47,2.47,0,0,1,.68,1.81,2.44,2.44,0,0,1-.68,1.82,2.55,2.55,0,0,1-3.59,0,2.73,2.73,0,0,1,0-3.63,2.45,2.45,0,0,1,1.81-.7,2.49,2.49,0,0,1,1.8.7"/><path class="cls-1" d="M573.52,295.49a2.76,2.76,0,0,1,0,3.63,2.43,2.43,0,0,1-1.81.73,2.34,2.34,0,0,1-1.78-.73,2.5,2.5,0,0,1,1.78-4.33,2.53,2.53,0,0,1,1.81.7"/><path class="cls-1" d="M582.41,295.49a2.55,2.55,0,0,1-1.81,4.36,2.34,2.34,0,0,1-1.78-.73,2.51,2.51,0,0,1,1.78-4.33,2.53,2.53,0,0,1,1.81.7"/><path class="cls-1" d="M591.3,295.49a2.44,2.44,0,0,1,.68,1.8,2.5,2.5,0,0,1-.68,1.83,2.4,2.4,0,0,1-1.8.73,2.34,2.34,0,0,1-1.78-.73,2.72,2.72,0,0,1,0-3.63,2.68,2.68,0,0,1,3.61,0"/><path class="cls-1" d="M600.2,295.48a2.79,2.79,0,0,1,0,3.63,2.44,2.44,0,0,1-1.81.74,2.37,2.37,0,0,1-1.78-.73,2.47,2.47,0,0,1-.7-1.83,2.37,2.37,0,0,1,2.48-2.51,2.53,2.53,0,0,1,1.81.7"/><path class="cls-1" d="M609.09,295.48a2.56,2.56,0,0,1-1.8,4.37,2.35,2.35,0,0,1-1.79-.74,2.73,2.73,0,0,1,0-3.63,2.46,2.46,0,0,1,1.8-.7,2.53,2.53,0,0,1,1.81.7"/><path class="cls-1" d="M618,295.48a2.46,2.46,0,0,1,.68,1.8,2.52,2.52,0,0,1-.67,1.83,2.43,2.43,0,0,1-1.81.73,2.32,2.32,0,0,1-1.78-.73,2.51,2.51,0,0,1,1.78-4.33,2.49,2.49,0,0,1,1.8.7"/><polygon class="cls-1" points="267.69 191.32 229.46 141.63 202.69 141.63 202.69 238.38 231.8 238.38 231.8 188.98 269.89 238.38 296.67 238.38 296.67 141.63 267.69 141.63 267.69 191.32"/><path class="cls-1" d="M383.34,146.05a61.13,61.13,0,0,0-54.66-.06,47.24,47.24,0,0,0-19,17.87,49.58,49.58,0,0,0-6.83,25.94,50.38,50.38,0,0,0,6.83,26.09,48,48,0,0,0,19,18.14,60.21,60.21,0,0,0,54.66,0,48.15,48.15,0,0,0,19-18.14,50.47,50.47,0,0,0,6.83-26.09A49.47,49.47,0,0,0,402.31,164,48,48,0,0,0,383.34,146.05Zm-9.67,56.17a21.2,21.2,0,0,1-7.17,8.63,17.51,17.51,0,0,1-10.07,3.1,18.14,18.14,0,0,1-10.29-3.17,22.68,22.68,0,0,1-7.59-8.63,26,26,0,0,1-2.83-12.21,25.61,25.61,0,0,1,2.83-12.14,22.25,22.25,0,0,1,7.59-8.49,18.47,18.47,0,0,1,10.29-3.11,17.83,17.83,0,0,1,10.07,3,20.81,20.81,0,0,1,7.17,8.48,27.83,27.83,0,0,1,2.63,12.22A28.22,28.22,0,0,1,373.67,202.22Z"/><path class="cls-1" d="M488.08,206.91a30.08,30.08,0,0,0,11.39-12.35,40.23,40.23,0,0,0,3.93-18.28q0-16.56-10.77-25.6t-30.49-9.05H415.35v96.75h32V213.26h12L471,238.38h34.47l.7-1.65Zm-17.88-21q-2.82,3.1-8.06,3.11H447.37v-23h14.77q5.24,0,8.06,3c1.89,2,2.84,4.77,2.84,8.35S472.09,183.8,470.2,185.87Z"/><path class="cls-1" d="M72.48,182.9a146.14,146.14,0,0,0-17.18-5.79,77.62,77.62,0,0,1-12.08-4c-2.53-1.19-3.8-2.9-3.8-5.1q0-4.27,5.94-4.28t15.73,3.45a107,107,0,0,1,17.53,8l11.59-24.42a73.75,73.75,0,0,0-19.53-8.42,82.59,82.59,0,0,0-22.56-3.18A56.92,56.92,0,0,0,26.31,143a32.07,32.07,0,0,0-14.49,11.11A28.6,28.6,0,0,0,6.72,171q0,9.94,5,15.87a30.53,30.53,0,0,0,11.8,8.77,131.16,131.16,0,0,0,17.05,5.45,70.53,70.53,0,0,1,12.35,3.93q3.93,1.86,3.93,5.18a4.49,4.49,0,0,1-2.06,4.07,10.61,10.61,0,0,1-5.66,1.31q-7.47,0-18.5-4.49a65.08,65.08,0,0,1-18.36-10.83L.37,224.44A74,74,0,0,0,22.93,236a84,84,0,0,0,25.88,4.21,58.46,58.46,0,0,0,20.56-3.45,32.21,32.21,0,0,0,14.7-10.56q5.45-7.11,5.45-17.6,0-10.22-5.11-16.49A30.76,30.76,0,0,0,72.48,182.9Z"/><path class="cls-1" d="M170.67,146.05a57.16,57.16,0,0,0-27.33-6.48A57.52,57.52,0,0,0,116,146a47.27,47.27,0,0,0-19,17.87,49.68,49.68,0,0,0-6.83,25.94A50.47,50.47,0,0,0,97,215.89,48,48,0,0,0,116,234a56.56,56.56,0,0,0,27.32,6.56A56.63,56.63,0,0,0,170.67,234a48.09,48.09,0,0,0,19-18.14,50.38,50.38,0,0,0,6.83-26.09A49.37,49.37,0,0,0,189.64,164,48,48,0,0,0,170.67,146.05ZM161,202.22a21.15,21.15,0,0,1-7.18,8.63,17.51,17.51,0,0,1-10.07,3.1,18.16,18.16,0,0,1-10.29-3.17,22.77,22.77,0,0,1-7.59-8.63,26.15,26.15,0,0,1-2.82-12.21,25.72,25.72,0,0,1,2.82-12.14,22.34,22.34,0,0,1,7.59-8.49,18.49,18.49,0,0,1,10.29-3.11,17.83,17.83,0,0,1,10.07,3,20.75,20.75,0,0,1,7.18,8.48,28,28,0,0,1,2.62,12.22A28.36,28.36,0,0,1,161,202.22Z"/><path class="cls-1" d="M546.28,141.63l-40.15,95.1,1,1.65h31.15l5-13.66h36.29l4.83,13.66h34.09l-39.33-96.75Zm5.25,60.18,10.21-28.3,9.94,28.3Z"/></svg>